HIERARCHY
ROOT Hips
{
	OFFSET 0.00000 0.00000 0.00000
	CHANNELS 6 Xposition Yposition Zposition Zrotation Yrotation Xrotation 
	JOINT LHipJoint
	{
		OFFSET 0 0 0
		CHANNELS 3 Zrotation Yrotation Xrotation
		JOINT LeftUpLeg
		{
			OFFSET 1.54859 -1.61379 0.86856
			CHANNELS 3 Zrotation Yrotation Xrotation
			JOINT LeftLeg
			{
				OFFSET 2.25087 -6.18423 0.00000
				CHANNELS 3 Zrotation Yrotation Xrotation
				JOINT LeftFoot
				{
					OFFSET 2.40328 -6.60297 0.00000
					CHANNELS 3 Zrotation Yrotation Xrotation
					JOINT LeftToeBase
					{
						OFFSET 0.17435 -0.47901 2.02453
						CHANNELS 3 Zrotation Yrotation Xrotation
						End Site
						{
							OFFSET 0.00000 -0.00000 1.04844
						}
					}
				}
			}
		}
	}
	JOINT RHipJoint
	{
		OFFSET 0 0 0
		CHANNELS 3 Zrotation Yrotation Xrotation
		JOINT RightUpLeg
		{
			OFFSET -1.54669 -1.61379 0.86856
			CHANNELS 3 Zrotation Yrotation Xrotation
			JOINT RightLeg
			{
				OFFSET -2.28132 -6.26789 0.00000
				CHANNELS 3 Zrotation Yrotation Xrotation
				JOINT RightFoot
				{
					OFFSET -2.51636 -6.91365 0.00000
					CHANNELS 3 Zrotation Yrotation Xrotation
					JOINT RightToeBase
					{
						OFFSET -0.15124 -0.41552 2.21090
						CHANNELS 3 Zrotation Yrotation Xrotation
						End Site
						{
							OFFSET -0.00000 -0.00000 1.13399
						}
					}
				}
			}
		}
	}
	JOINT LowerBack
	{
		OFFSET 0 0 0
		CHANNELS 3 Zrotation Yrotation Xrotation
		JOINT Spine
		{
			OFFSET -0.04287 2.26161 -0.25690
			CHANNELS 3 Zrotation Yrotation Xrotation
			JOINT Spine1
			{
				OFFSET 0.02248 2.28395 -0.10140
				CHANNELS 3 Zrotation Yrotation Xrotation
				JOINT Neck
				{
					OFFSET 0 0 0
					CHANNELS 3 Zrotation Yrotation Xrotation
					JOINT Neck1
					{
						OFFSET -0.11644 1.38496 0.11345
						CHANNELS 3 Zrotation Yrotation Xrotation
						JOINT Head
						{
							OFFSET 0.29383 1.36600 0.06642
							CHANNELS 3 Zrotation Yrotation Xrotation
							End Site
							{
								OFFSET 0.11075 1.41395 -0.00294
							}
						}
					}
				}
				JOINT LeftShoulder
				{
					OFFSET 0 0 0
					CHANNELS 3 Zrotation Yrotation Xrotation
					JOINT LeftArm
					{
						OFFSET 3.51628 0.59542 -0.30346
						CHANNELS 3 Zrotation Yrotation Xrotation
						JOINT LeftForeArm
						{
							OFFSET 4.76405 -0.00000 0.00000
							CHANNELS 3 Zrotation Yrotation Xrotation
							JOINT LeftHand
							{
								OFFSET 3.13759 -0.00000 -0.00000
								CHANNELS 3 Zrotation Yrotation Xrotation
								JOINT LeftFingerBase
								{
									OFFSET 0 0 0
									CHANNELS 3 Zrotation Yrotation Xrotation
									JOINT LeftHandIndex1
									{
										OFFSET 0.73226 -0.00000 -0.00000
										CHANNELS 3 Zrotation Yrotation Xrotation
										End Site
										{
											OFFSET 0.59037 -0.00000 -0.00000
										}
									}
								}
								JOINT LThumb
								{
									OFFSET 0 0 0
									CHANNELS 3 Zrotation Yrotation Xrotation
									End Site
									{
										OFFSET 0.59938 -0.00000 0.59938
									}
								}
							}
						}
					}
				}
				JOINT RightShoulder
				{
					OFFSET 0 0 0
					CHANNELS 3 Zrotation Yrotation Xrotation
					JOINT RightArm
					{
						OFFSET -3.30990 0.84213 -0.36430
						CHANNELS 3 Zrotation Yrotation Xrotation
						JOINT RightForeArm
						{
							OFFSET -5.10161 -0.00000 -0.00000
							CHANNELS 3 Zrotation Yrotation Xrotation
							JOINT RightHand
							{
								OFFSET -3.23267 -0.00000 -0.00000
								CHANNELS 3 Zrotation Yrotation Xrotation
								JOINT RightFingerBase
								{
									OFFSET 0 0 0
									CHANNELS 3 Zrotation Yrotation Xrotation
									JOINT RightHandIndex1
									{
										OFFSET -0.70200 -0.00000 -0.00000
										CHANNELS 3 Zrotation Yrotation Xrotation
										End Site
										{
											OFFSET -0.56597 -0.00000 -0.00000
										}
									}
								}
								JOINT RThumb
								{
									OFFSET 0 0 0
									CHANNELS 3 Zrotation Yrotation Xrotation
									End Site
									{
										OFFSET -0.57461 -0.00000 0.57461
									}
								}
							}
						}
					}
				}
			}
		}
	}
}
MOTION
Frames: 15
Frame Time: .0083333
-37.6533 16.1102 -9.4958 0 0 0 0 0 0 -21 0 0 0 0 0 0 0 0 0 0 0 0 0 0 21 0 0 0 0 0 0 0 0 0 0 0 0 0 0 0 0 0 0 0 0 0 0 -16 0 0 21 0 0 11 0 0 0 -8 0 0 0 0 0 0 0 0 0 0 0 0 0 0 0 0 0 0 0 0 8 0 0 0 0 0 0 0 0 0 0 0 0 0 0 0 0 0
-37.6533 16.1102 -9.4958 5.3365 75.3559 11.2587 0.0000 0.0000 0.0000 -20.8915 4.8994 -37.4832 9.2295 16.9532 56.8805 0.1848 -1.0568 8.5778 0.0716 -1.7266 -4.7506 0.0000 0.0000 0.0000 10.7607 0.3320 -22.7525 -9.7894 -17.2897 58.7822 -0.2684 -5.1416 -13.0346 -1.3062 7.2399 -20.4282 -1.6479 2.2463 22.0515 -1.2864 3.2562 10.6180 -1.1560 1.8930 -0.7204 -2.2107 13.5790 -11.0309 -8.8312 18.5526 -14.2840 -2.1223 9.9381 -2.1194 -0.0000 0.0000 0.0000 -71.3584 -4.4232 -2.3954 62.4307 -56.9236 -36.3709 -0.0000 0.0000 -27.2083 6.3950 25.5433 2.7668 -7.1250 0.0000 -0.0000 -24.3404 53.9603 -5.6173 -0.0000 0.0000 0.0000 81.4713 12.2077 10.0447 -33.5568 43.7537 -13.8057 0.0000 -0.0000 -16.1895 -42.3270 30.9587 -25.1045 7.1250 -0.0000 -0.0000 -6.0053 8.8855 -6.8959
-37.3615 16.2048 -9.5456 4.9553 74.9143 10.9601 0.0000 0.0000 0.0000 -20.2327 5.5449 -37.3702 9.3444 17.0243 57.2738 0.3751 -1.5885 12.2571 0.0008 0.1856 0.5099 0.0000 0.0000 0.0000 10.8745 -0.3089 -22.7470 -9.4360 -17.0803 57.5861 -0.3175 -4.5666 -13.3158 -0.6406 5.1204 -14.2523 -1.0858 2.2928 21.1451 -1.7347 3.4551 10.9279 -1.9321 2.0352 0.1277 -1.5747 13.9856 -11.1716 -9.0998 19.0414 -14.3059 -2.2537 10.1655 -2.0029 0.0000 -0.0000 0.0000 -70.9412 -3.8074 -3.9849 61.8252 -56.7770 -35.8639 -0.0000 0.0000 -30.7561 3.5085 26.4435 1.5640 -7.1250 0.0000 -0.0000 -27.6794 54.2354 -6.6714 0.0000 -0.0000 0.0000 82.3445 11.6570 9.6492 -34.0339 44.1098 -14.1366 0.0000 -0.0000 -17.5845 -42.4985 30.5753 -24.9896 7.1250 -0.0000 -0.0000 -6.2024 8.5249 -7.0920
-37.0708 16.2977 -9.5955 4.6663 74.4699 10.6798 0.0000 0.0000 0.0000 -19.5264 6.1275 -37.2492 9.5323 17.1383 57.9136 0.5689 -2.6516 15.4569 0.0424 1.3291 3.6548 0.0000 0.0000 0.0000 10.9512 -1.0250 -22.7661 -9.1520 -16.9046 56.6144 -0.2743 -4.8120 -12.8464 -0.5219 4.6299 -12.8559 -1.1058 2.4881 20.9917 -1.7392 3.6802 10.7430 -1.9697 2.1362 0.0068 -1.3872 14.3400 -11.1620 -9.2120 19.4864 -13.8948 -2.2633 10.3578 -1.8227 0.0000 -0.0000 0.0000 -71.2515 -2.2983 -5.3883 61.1639 -56.6122 -35.3112 -0.0000 0.0000 -34.7346 0.7186 27.9933 0.3373 -7.1250 0.0000 -0.0000 -31.4236 55.0537 -8.3666 0.0000 -0.0000 0.0000 82.5028 10.3713 9.6699 -34.5229 44.4685 -14.4781 0.0000 -0.0000 -19.2644 -42.6075 30.2075 -24.8336 7.1250 -0.0000 -0.0000 -6.3612 8.1544 -7.2409
-36.7856 16.3547 -9.6485 4.6904 74.1692 10.8784 0.0000 0.0000 0.0000 -18.7833 4.9217 -36.8157 9.7558 17.2702 58.6689 0.6255 -2.6902 16.1560 0.0500 1.4435 3.9701 0.0000 0.0000 0.0000 10.8824 -1.7337 -22.9385 -8.8867 -16.7343 55.6976 -0.1998 -5.3069 -12.0483 -0.4994 4.5307 -12.5747 -0.7460 2.4621 20.3067 -2.1381 3.7180 10.8069 -2.5598 2.1841 0.4697 -0.8541 14.5954 -11.3375 -9.2419 19.7903 -13.8609 -2.3077 10.4866 -1.7193 -0.0000 0.0000 0.0000 -71.1123 -1.3838 -7.0937 59.9549 -56.2979 -34.3035 -0.0000 0.0000 -38.5385 -2.4387 28.9439 -1.1807 -7.1250 0.0000 -0.0000 -35.1152 55.2401 -9.7024 -0.0000 0.0000 0.0000 83.2276 9.6726 9.8172 -34.9616 44.7847 -14.7863 0.0000 -0.0000 -20.8351 -42.3950 30.3591 -24.7700 7.1250 -0.0000 -0.0000 -6.2047 8.2389 -7.0686
-36.4980 16.3998 -9.6995 4.4436 73.8623 10.8157 0.0000 0.0000 0.0000 -18.0557 3.9263 -36.4268 9.9820 17.3997 59.4280 0.5203 -1.5595 14.2794 0.0100 -0.6453 -1.7734 0.0000 0.0000 0.0000 10.8496 -2.3739 -22.9247 -8.5963 -16.5408 54.6831 -0.1167 -5.8308 -11.0414 -0.4862 4.4711 -12.4060 -1.4658 2.7878 20.8936 -1.5323 3.9034 9.8545 -1.6240 2.1871 -0.9443 -1.2646 14.8160 -10.8898 -9.0580 20.0880 -13.0071 -2.1696 10.5939 -1.5561 -0.0000 -0.0000 0.0000 -72.8927 1.2957 -8.3781 58.8919 -56.0074 -33.4207 -0.0000 0.0000 -41.1427 -5.8666 28.6435 -2.8198 -7.1250 0.0000 -0.0000 -38.0082 54.3391 -9.7937 -0.0000 -0.0000 0.0000 82.2405 7.1569 10.2817 -35.6319 45.2581 -15.2605 0.0000 -0.0000 -22.6344 -42.0357 30.3385 -24.4832 7.1250 -0.0000 -0.0000 -6.0148 8.0702 -6.8349
-36.2058 16.4579 -9.7448 4.1392 73.4504 10.5780 0.0000 0.0000 0.0000 -17.4036 4.3339 -36.2767 10.1554 17.4963 60.0067 0.3573 1.6119 10.8452 0.2633 -3.3014 -9.1190 0.0000 0.0000 0.0000 10.7663 -2.8326 -22.5010 -8.2662 -16.3116 53.5159 -0.0415 -6.2758 -9.9716 -0.4847 4.4643 -12.3866 -0.7646 2.6962 19.1040 -2.1925 4.0229 10.7995 -2.5885 2.3291 1.0812 -0.5228 14.8874 -10.7008 -9.5292 20.1072 -14.2793 -2.5064 10.6604 -1.8836 0.0000 -0.0000 0.0000 -72.4952 1.2558 -9.7603 58.8329 -55.9908 -33.3718 -0.0000 0.0000 -45.6915 -5.1504 31.3323 -2.6835 -7.1250 0.0000 -0.0000 -39.6831 56.6152 -12.6722 0.0000 -0.0000 0.0000 83.3337 8.1384 10.0976 -35.6668 45.2824 -15.2852 0.0000 -0.0000 -23.4701 -42.0096 29.6936 -24.0453 7.1250 -0.0000 -0.0000 -6.1715 7.3310 -6.9466
-35.9068 16.5372 -9.7836 3.6771 73.0511 10.0848 0.0000 0.0000 0.0000 -16.6676 6.4223 -36.6086 10.2058 17.5240 60.1741 0.1256 5.7346 6.9736 0.3073 -3.5642 -9.8538 0.0000 0.0000 0.0000 10.7326 -3.2636 -21.6819 -7.8879 -16.0362 52.1579 0.0323 -6.8194 -8.8947 -0.5198 4.6207 -12.8297 -1.5046 3.0799 20.3245 -1.7126 4.2371 9.4913 -1.8422 2.3384 -1.0350 -0.5813 15.0172 -10.0618 -9.1242 20.2449 -13.1223 -2.3476 10.6495 -1.6433 0.0000 -0.0000 0.0000 -73.9244 5.3608 -9.9444 59.9995 -56.3098 -34.3407 -0.0000 0.0000 -49.7900 -6.8983 32.6172 -3.7312 -7.1250 0.0000 -0.0000 -42.5079 57.2378 -14.4918 0.0000 -0.0000 0.0000 82.6613 5.0615 10.7050 -36.1897 45.6432 -15.6580 0.0000 -0.0000 -24.3328 -41.7019 29.4227 -23.6398 7.1250 -0.0000 -0.0000 -6.0732 6.9021 -6.7953
-35.6154 16.5846 -9.8179 2.7887 72.6726 9.1192 0.0000 0.0000 0.0000 -15.6083 7.5339 -36.6161 10.1442 17.4901 59.9692 -0.1786 9.5253 2.8242 0.3850 -3.9847 -11.0336 0.0000 0.0000 0.0000 10.8348 -3.5852 -20.7954 -7.5447 -15.7740 50.9057 0.1164 -7.5693 -7.6265 -0.5977 4.9494 -13.7643 -1.6032 3.2688 20.1234 -1.6628 4.4540 9.3705 -1.7706 2.4351 -1.0712 -0.1617 14.9802 -9.8977 -9.1425 20.1453 -12.9294 -2.4085 10.5708 -1.5649 0.0000 -0.0000 0.0000 -74.6944 7.2764 -10.7398 60.1637 -56.3534 -34.4773 -0.0000 0.0000 -53.4599 -9.8884 33.2309 -5.4569 -7.1250 0.0000 -0.0000 -45.8155 57.0532 -15.7494 0.0000 -0.0000 0.0000 82.7206 4.1412 10.9391 -36.2809 45.7054 -15.7232 0.0000 -0.0000 -24.4494 -41.0806 29.8271 -23.4415 7.1250 -0.0000 -0.0000 -5.6267 7.1169 -6.3093
-35.3307 16.6020 -9.8491 2.2437 72.1588 8.4943 0.0000 0.0000 0.0000 -14.5138 8.3853 -36.2375 9.9193 17.3642 59.2185 -0.3564 11.1481 -0.1330 0.7466 -5.5193 -15.3958 0.0000 0.0000 0.0000 10.7417 -3.6405 -19.9376 -7.2635 -15.5499 49.8641 0.1822 -8.0460 -5.9275 -0.7508 5.5345 -15.4395 -1.9465 3.5027 20.4114 -1.6606 4.6359 8.8711 -1.6581 2.4984 -1.7773 0.1893 14.9137 -9.5402 -8.8298 20.0178 -12.5723 -2.3736 10.4643 -1.5076 0.0000 -0.0000 0.0000 -75.5096 9.7838 -11.6548 60.2263 -56.3699 -34.5294 -0.0000 0.0000 -56.9198 -13.2464 33.3435 -7.3726 -7.1250 0.0000 -0.0000 -48.8804 56.4170 -16.3773 0.0000 -0.0000 0.0000 82.8462 2.7117 11.4420 -36.4961 45.8514 -15.8775 0.0000 -0.0000 -24.4810 -40.5902 30.1271 -23.2701 7.1250 -0.0000 -0.0000 -5.2800 7.2654 -5.9291
-35.0439 16.5968 -9.8839 2.7591 71.8037 8.9223 0.0000 0.0000 0.0000 -13.6149 8.2545 -35.4010 9.5631 17.1567 58.0178 -0.3963 11.2257 -2.1864 1.0522 -6.5228 -18.3090 0.0000 0.0000 0.0000 10.2084 -3.8283 -19.0663 -7.0613 -15.3833 49.1057 0.1893 -7.8837 -4.7467 -0.7325 5.4681 -15.2487 -2.1837 3.5962 19.6801 -1.9800 4.7493 9.0751 -1.8239 2.5608 -1.1741 0.7672 14.6941 -9.5628 -8.7709 19.6813 -12.6741 -2.4484 10.2760 -1.5007 -0.0000 0.0000 0.0000 -76.0796 11.0121 -12.9310 59.9719 -56.3024 -34.3177 -0.0000 0.0000 -60.0020 -16.0832 33.0787 -8.9428 -7.1250 0.0000 -0.0000 -51.0359 55.6364 -16.3489 -0.0000 0.0000 0.0000 83.3446 2.5437 11.6128 -36.4462 45.8176 -15.8416 0.0000 -0.0000 -24.2302 -40.2149 30.5791 -23.2742 7.1250 -0.0000 -0.0000 -4.9577 7.6275 -5.5916
-34.7534 16.5797 -9.9187 3.7249 71.6726 9.8031 0.0000 0.0000 0.0000 -12.8498 7.7409 -34.5209 9.1042 16.8743 56.4497 -0.3553 10.5075 -3.3571 1.2170 -6.9977 -19.7085 0.0000 0.0000 0.0000 9.4934 -4.3066 -18.1328 -6.9047 -15.2511 48.5129 0.1697 -7.4362 -4.3296 -0.5065 4.5621 -12.6637 -3.5209 3.9251 20.4683 -1.5028 4.8089 8.0241 -0.6963 2.5265 -2.8470 0.6323 14.4500 -9.2838 -8.1899 19.3533 -11.3341 -2.2099 10.0356 -1.1929 -0.0000 0.0000 0.0000 -78.1458 14.3613 -14.1502 60.8344 -56.5282 -35.0362 -0.0000 0.0000 -63.4427 -16.1797 34.3515 -9.2979 -7.1250 0.0000 -0.0000 -52.4563 56.4884 -18.1950 -0.0000 0.0000 0.0000 82.5474 0.1484 12.1956 -36.6822 45.9766 -16.0111 0.0000 -0.0000 -24.1202 -39.9733 30.9641 -23.3310 7.1250 -0.0000 -0.0000 -4.7262 7.9640 -5.3525
-34.4629 16.5552 -9.9488 4.1042 71.5910 10.1197 0.0000 0.0000 0.0000 -11.8259 7.1452 -33.6262 8.5902 16.5367 54.6618 -0.2997 9.6976 -4.5761 0.6595 -5.1941 -14.4630 0.0000 0.0000 0.0000 8.9797 -4.7755 -17.1933 -6.7674 -15.1329 47.9891 0.1607 -7.1359 -3.4954 -0.4483 4.2956 -11.9098 -3.7400 3.9864 19.9650 -1.7741 4.8618 8.0012 -0.8376 2.5518 -2.6080 0.9431 14.0184 -9.4085 -7.5773 18.7780 -11.0589 -2.0689 9.7129 -1.1395 -0.0000 0.0000 0.0000 -79.0824 15.7806 -15.8244 61.6125 -56.7245 -35.6860 -0.0000 0.0000 -66.3966 -12.2877 36.9500 -7.4593 -7.1250 0.0000 -0.0000 -52.0717 59.1174 -21.4790 -0.0000 0.0000 0.0000 83.1889 -0.4664 12.2514 -36.8704 46.1024 -16.1466 0.0000 -0.0000 -23.7101 -39.8428 31.1211 -23.3294 7.1250 -0.0000 -0.0000 -4.6144 8.0886 -5.2336
-34.1727 16.5248 -9.9749 4.0872 71.5723 10.0994 0.0000 0.0000 0.0000 -10.6350 6.8286 -32.9486 8.0615 16.1643 52.7841 -0.2353 8.8254 -5.5176 0.1282 -2.3081 -6.3580 0.0000 0.0000 0.0000 8.6320 -5.1206 -16.2397 -6.6391 -15.0203 47.4958 0.1613 -7.1042 -2.3701 -0.6084 4.9927 -13.8876 -3.9359 4.0566 19.3326 -1.9458 4.9512 8.0495 -0.8798 2.5931 -2.2335 1.2588 13.4245 -9.3471 -7.2203 17.9735 -11.2569 -2.0565 9.2993 -1.2487 0.0000 -0.0000 0.0000 -80.3375 16.9939 -17.4732 62.7323 -56.9951 -36.6237 -0.0000 0.0000 -67.7316 -12.3566 37.7830 -7.6445 -7.1250 0.0000 -0.0000 -53.1556 59.6520 -22.7958 0.0000 -0.0000 0.0000 83.7095 -0.9097 12.2537 -36.9665 46.1663 -16.2159 0.0000 -0.0000 -23.3977 -39.6125 31.1381 -23.1697 7.1250 -0.0000 -0.0000 -4.4845 8.0206 -5.0809
-33.8807 16.4768 -9.9976 4.6208 71.6670 10.6740 0.0000 0.0000 0.0000 -9.7461 6.5905 -32.4858 7.5388 15.7693 50.8840 -0.2016 8.4017 -6.0323 0.1492 -2.4891 -6.8596 0.0000 0.0000 0.0000 8.1026 -5.6019 -15.2671 -6.5230 -14.9167 47.0463 0.1470 -6.8666 -1.3567 -0.7369 5.4842 -15.2948 -4.4432 4.1192 18.6235 -2.0027 4.9855 8.0550 -0.6118 2.5966 -1.8970 1.3449 12.6913 -9.1861 -6.7845 17.0057 -11.5654 -2.0078 8.8128 -1.4417 0.0000 -0.0000 0.0000 -82.0578 18.1552 -19.2548 64.2735 -57.3452 -37.9188 -0.0000 0.0000 -68.4736 -18.3578 36.2455 -11.1003 -7.1250 0.0000 -0.0000 -56.4054 57.2543 -21.3880 0.0000 -0.0000 0.0000 83.8784 -1.3176 12.4402 -36.8277 46.0740 -16.1158 0.0000 -0.0000 -23.3077 -39.6925 31.2128 -23.2734 7.1250 -0.0000 -0.0000 -4.5087 8.1332 -5.1160
